HIERARCHY
ROOT Hips
{
	OFFSET 0.00000 0.00000 0.00000
	CHANNELS 6 Xposition Yposition Zposition Zrotation Yrotation Xrotation 
	JOINT LHipJoint
	{
		OFFSET 0 0 0
		CHANNELS 3 Zrotation Yrotation Xrotation
		JOINT LeftHip
		{
			OFFSET 1.37959 -1.78713 0.86582
			CHANNELS 3 Zrotation Yrotation Xrotation
			JOINT LeftKnee
			{
				OFFSET 2.54611 -6.99539 0.00000
				CHANNELS 3 Zrotation Yrotation Xrotation
				JOINT LeftAnkle
				{
					OFFSET 2.59951 -7.14211 0.00000
					CHANNELS 3 Zrotation Yrotation Xrotation
					JOINT LeftToe
					{
						OFFSET 0.18493 -0.50810 1.96120
						CHANNELS 3 Zrotation Yrotation Xrotation
						End Site
						{
							OFFSET 0.00000 -0.00000 1.02054
						}
					}
				}
			}
		}
	}
	JOINT RHipJoint
	{
		OFFSET 0 0 0
		CHANNELS 3 Zrotation Yrotation Xrotation
		JOINT RightHip
		{
			OFFSET -1.33564 -1.78713 0.86582
			CHANNELS 3 Zrotation Yrotation Xrotation
			JOINT RightKnee
			{
				OFFSET -2.52705 -6.94302 0.00000
				CHANNELS 3 Zrotation Yrotation Xrotation
				JOINT RightAnkle
				{
					OFFSET -2.55964 -7.03257 0.00000
					CHANNELS 3 Zrotation Yrotation Xrotation
					JOINT RightToe
					{
						OFFSET -0.25804 -0.70896 2.12109
						CHANNELS 3 Zrotation Yrotation Xrotation
						End Site
						{
							OFFSET -0.00000 -0.00000 1.11821
						}
					}
				}
			}
		}
	}
	JOINT lowerback
	{
		OFFSET 0 0 0
		CHANNELS 3 Zrotation Yrotation Xrotation
		JOINT Chest
		{
			OFFSET -0.02031 2.24248 -0.18900
			CHANNELS 3 Zrotation Yrotation Xrotation
			JOINT Chest2
			{
				OFFSET 0.08342 2.24689 -0.03799
				CHANNELS 3 Zrotation Yrotation Xrotation
				JOINT lowerneck
				{
					OFFSET 0 0 0
					CHANNELS 3 Zrotation Yrotation Xrotation
					JOINT Neck
					{
						OFFSET -0.11607 1.55844 0.24628
						CHANNELS 3 Zrotation Yrotation Xrotation
						JOINT Head
						{
							OFFSET 0.06877 1.60174 -0.17013
							CHANNELS 3 Zrotation Yrotation Xrotation
							End Site
							{
								OFFSET 0.03358 1.61266 -0.08543
							}
						}
					}
				}
				JOINT LeftCollar
				{
					OFFSET 0 0 0
					CHANNELS 3 Zrotation Yrotation Xrotation
					JOINT LeftShoulder
					{
						OFFSET 3.47537 0.55866 -0.72348
CHANNELS 3 Zrotation Xrotation Yrotation
						JOINT LeftElbow
						{
OFFSET 0 -5.381540 0.000000
CHANNELS 3 Zrotation Xrotation Yrotation
							JOINT LeftWrist
							{
OFFSET 0 -3.333120 0.000000
CHANNELS 3 Zrotation Xrotation Yrotation
								JOINT lhand
								{
									OFFSET 0 0 0
CHANNELS 3 Zrotation Xrotation Yrotation
									JOINT LFingers
									{
OFFSET 0 -0.710790 0.000000
CHANNELS 3 Zrotation Xrotation Yrotation
										End Site
										{
OFFSET 0 -0.573060 0.000000
										}
									}
								}
								JOINT LThumb
								{
OFFSET 0 0.000000 0.000000
CHANNELS 3 Zrotation Xrotation Yrotation
									End Site
									{
OFFSET 0 -0.581810 0.581810
									}
								}
							}
						}
					}
				}
				JOINT RightCollar
				{
					OFFSET 0 0 0
					CHANNELS 3 Zrotation Yrotation Xrotation
					JOINT RightShoulder
					{
						OFFSET -3.27844 0.90739 -0.35708
CHANNELS 3 Zrotation Xrotation Yrotation
						JOINT RightElbow
						{
OFFSET 0 -5.169540 0.000000
CHANNELS 3 Zrotation Xrotation Yrotation
							JOINT RightWrist
							{
OFFSET 0 -3.382870 0.000000
CHANNELS 3 Zrotation Xrotation Yrotation
								JOINT rhand
								{
									OFFSET 0 0 0
CHANNELS 3 Zrotation Xrotation Yrotation
									JOINT RFingers
									{
OFFSET 0 -0.817970 0.000000
CHANNELS 3 Zrotation Xrotation Yrotation
										End Site
										{
OFFSET 0 -0.659470 0.000000
										}
									}
								}
								JOINT RThumb
								{
OFFSET 0 0.000000 0.000000
CHANNELS 3 Zrotation Xrotation Yrotation
									End Site
									{
OFFSET 0 -0.669530 0.669530
									}
								}
							}
						}
					}
				}
			}
		}
	}
}
MOTION
Frames: 9
Frame Time: 0.008333333333333333
9.158700 17.353600 -11.673600 -7.387300 16.726800 0.876000 0.000000 0.000000 0.000000 -14.943200 -0.728800 -7.073100 2.848000 10.444900 30.429700 1.968300 0.370600 -26.692800 0.171400 -2.666800 -7.352500 0.000000 0.000000 0.000000 26.508000 3.831200 -13.415400 -2.622100 -10.056700 29.160400 -0.976100 -2.790900 -19.866500 -0.013700 0.755400 -2.075900 3.820500 -0.264100 2.108700 3.606300 -0.215100 0.231300 1.567300 -0.111100 -0.946300 -14.039300 -7.172500 -11.533400 10.164200 -8.817900 12.799300 4.698700 -4.183500 6.885300 -0.000000 -0.000000 0.000000 0.008200 2.420500 -20.716400 16.892300 -26.715600 4.038800 -0.603100 8.066500 -37.433500 0.000000 0.000000 0.000000 -7.125000 0.000000 0.000000 -42.005400 62.353600 19.514700 -0.000000 -0.000000 0.000000 -1.966600 -1.238700 17.777900 -14.424100 -23.337700 -2.994100 -15.305100 -12.189700 -22.803700 0.000000 0.000000 0.000000 7.125000 0.000000 -0.000000 8.546200 6.645100 7.586800
9.152021 17.346545 -11.659770 -6.720394 16.969566 0.820793 0.000000 0.000000 0.000000 -15.556848 -0.413644 -6.766582 2.797899 10.360428 30.152080 1.946639 0.120452 -26.461686 0.194192 -2.837666 -7.827086 0.000000 0.000000 0.000000 25.895469 3.776671 -13.176983 -2.662631 -10.127683 29.391246 -0.990380 -3.151808 -20.185919 -0.017855 0.862893 -2.371727 3.055661 -0.359424 2.483370 3.335731 -0.345354 0.255697 1.722618 -0.175880 -1.128142 -13.449821 -6.998299 -12.129116 9.690794 -8.554563 13.197761 4.465070 -4.048895 7.034026 0.000000 0.000000 0.000000 0.126416 2.417909 -20.028352 17.084498 -26.969050 4.125599 -1.929401 8.008330 -37.980765 0.000000 0.000000 0.000000 -7.125000 0.000000 0.000000 -43.969580 62.410957 20.680961 0.000000 0.000000 0.000000 -1.572127 -1.171315 17.941907 -14.579467 -23.557040 -3.055878 -16.598648 -13.100787 -22.886944 0.000000 0.000000 0.000000 7.125000 0.000000 0.000000 7.743219 6.386556 6.898495
9.160594 17.348947 -11.654310 -7.456549 17.046596 0.647296 0.000000 0.000000 0.000000 -14.722495 -0.236388 -7.164199 2.904837 10.539416 30.741747 2.001086 -0.430182 -26.655562 0.164838 -2.613551 -7.204642 0.000000 0.000000 0.000000 26.684854 3.993587 -12.855070 -2.575761 -9.974374 28.893880 -0.963860 -3.488099 -20.116689 -0.024181 1.002856 -2.756702 3.802755 -0.399978 2.476108 3.455823 -0.381422 0.352500 1.429167 -0.194743 -1.028752 -13.364743 -6.665193 -12.412268 10.027209 -8.126855 13.103618 4.609774 -3.805047 7.010619 0.000000 0.000000 0.000000 0.373381 2.333959 -20.111930 17.075784 -26.957561 4.121601 -1.031386 8.093055 -37.018293 0.000000 0.000000 0.000000 -7.125000 0.000000 0.000000 -41.893226 61.933431 19.038203 0.000000 0.000000 0.000000 -1.421352 -1.401662 18.709099 -14.687129 -23.708457 -3.099104 -11.778771 -11.116996 -19.901567 0.000000 0.000000 0.000000 7.125000 0.000000 0.000000 10.678074 9.960127 8.828990
9.154179 17.355054 -11.658080 -7.323972 16.802579 0.913089 0.000000 0.000000 0.000000 -14.842100 -0.222446 -7.420584 2.901218 10.533430 30.721921 2.010005 -0.493650 -26.696238 0.132152 -2.342684 -6.453617 0.000000 0.000000 0.000000 26.574207 4.593117 -12.987410 -2.586480 -9.993442 28.955520 -0.937233 -3.728156 -19.997620 -0.014142 0.766244 -2.105800 3.482605 -0.276674 2.612892 3.464580 -0.212572 0.249695 1.612797 -0.111475 -1.209465 -13.168305 -6.637406 -13.078273 9.781458 -8.024814 13.500299 4.495549 -3.748251 7.222532 0.000000 0.000000 0.000000 0.809729 2.244188 -20.648014 17.023228 -26.888287 4.097906 -0.407232 8.429797 -35.950729 0.000000 0.000000 0.000000 -7.125000 0.000000 0.000000 -40.011300 61.281556 17.404948 0.000000 0.000000 0.000000 -1.335679 -1.563106 18.685067 -14.595546 -23.579625 -3.062318 -10.646066 -10.529025 -20.430203 0.000000 0.000000 0.000000 7.125000 0.000000 0.000000 11.408502 9.545192 9.555208
9.161508 17.360373 -11.654085 -7.512550 16.935583 0.847596 0.000000 0.000000 0.000000 -14.605850 -0.021917 -7.513868 2.887778 10.511148 30.648382 1.980756 -0.717090 -26.430854 0.129931 -2.323356 -6.400130 0.000000 0.000000 0.000000 26.728787 4.548685 -12.997367 -2.582428 -9.986291 28.932353 -0.942125 -3.727280 -20.043997 -0.012741 0.728013 -2.000842 3.627155 -0.290780 2.729531 3.558225 -0.228854 0.465703 1.628750 -0.117203 -1.053026 -13.149488 -6.861665 -14.111917 9.552143 -8.188083 13.900293 4.374028 -3.816404 7.541507 0.000000 0.000000 0.000000 0.862494 1.366819 -20.862640 16.605326 -26.334469 3.910688 -1.133666 7.312938 -36.076600 0.000000 0.000000 0.000000 -7.125000 0.000000 0.000000 -40.853284 61.197543 17.760642 0.000000 0.000000 0.000000 -1.414661 -1.911817 19.024003 -14.661807 -23.672813 -3.088853 -12.087837 -11.399995 -20.712449 0.000000 0.000000 0.000000 7.125000 0.000000 0.000000 10.495420 9.120100 8.853269
9.167739 17.358284 -11.654943 -7.686923 16.993154 0.838627 0.000000 0.000000 0.000000 -14.462983 -0.307366 -7.561848 2.920831 10.565887 30.829274 1.885683 -0.024351 -25.994692 0.314950 -3.605907 -9.970742 0.000000 0.000000 0.000000 26.899070 4.422836 -12.986182 -2.553024 -9.933768 28.762445 -0.940886 -3.703808 -20.018241 -0.007766 0.570434 -1.567521 3.792452 -0.302815 2.881048 3.613050 -0.225881 0.404904 1.594088 -0.117774 -1.200965 -13.134996 -6.821429 -14.299707 9.520031 -8.133319 14.339272 4.366976 -3.788764 7.709387 0.000000 0.000000 0.000000 0.673843 1.679847 -20.714080 16.964718 -26.811194 4.071399 -0.456949 7.800388 -35.976528 0.000000 0.000000 0.000000 -7.125000 0.000000 0.000000 -40.089066 61.289021 17.452308 0.000000 0.000000 0.000000 -1.303194 -1.983117 19.131136 -14.607231 -23.596013 -3.066976 -12.192254 -10.627207 -20.327047 0.000000 0.000000 0.000000 7.125000 0.000000 0.000000 10.421219 9.494077 8.708417
9.214518 17.335702 -11.616171 -7.669608 16.354302 0.174872 0.000000 0.000000 0.000000 -14.699367 0.256329 -6.505613 2.883147 10.503412 30.622734 1.881792 0.657848 -26.199217 0.460561 -4.351398 -12.067646 0.000000 0.000000 0.000000 26.745924 3.938878 -12.292123 -2.591920 -10.003231 28.987072 -0.964048 -2.930271 -19.824067 -0.016390 0.825241 -2.268015 4.090252 -0.140027 2.985801 3.539299 -0.015870 0.824615 1.342828 -0.007048 -0.828116 -13.665108 -6.687887 -14.382097 10.109348 -7.944568 14.553556 4.679579 -3.675871 7.819912 0.000000 0.000000 0.000000 0.837637 1.774185 -21.180063 17.258628 -27.197455 4.204891 1.326283 8.419278 -34.697432 0.000000 0.000000 0.000000 -7.125000 0.000000 0.000000 -36.922821 60.726262 15.347729 0.000000 0.000000 0.000000 -1.327923 -2.134979 19.451734 -14.730064 -23.768748 -3.116384 -10.729636 -10.715331 -19.741845 0.000000 0.000000 0.000000 7.125000 0.000000 0.000000 11.348644 10.219491 9.345366
9.220693 17.342917 -11.622992 -7.473958 16.879815 0.322853 0.000000 0.000000 0.000000 -14.880705 0.125124 -6.656943 2.863132 10.470131 30.513075 1.839617 0.390875 -25.812807 0.529398 -4.661910 -12.946890 0.000000 0.000000 0.000000 26.469818 3.462107 -12.596265 -2.596213 -10.010751 29.011661 -0.979359 -2.770185 -19.886982 -0.007817 0.556149 -1.528288 3.963882 -0.199833 3.113668 3.554064 -0.086418 0.749821 1.431869 -0.044159 -0.976939 -13.838269 -6.580813 -13.921141 10.116839 -7.776648 13.857859 4.734438 -3.614646 7.497453 0.000000 0.000000 0.000000 0.231007 0.990010 -20.406270 16.681934 -26.436034 3.944917 0.289466 8.996442 -35.433622 0.000000 0.000000 0.000000 -7.125000 0.000000 0.000000 -38.748134 61.051850 16.549436 0.000000 0.000000 0.000000 -1.395644 -2.044877 19.379787 -15.059139 -24.228410 -3.250220 -10.812103 -10.840280 -19.098862 0.000000 0.000000 0.000000 7.125000 0.000000 0.000000 11.291825 10.849722 9.148567
9.207271 17.350433 -11.630545 -7.700744 17.360248 0.656948 0.000000 0.000000 0.000000 -14.507063 -0.152263 -7.350110 2.895006 10.523092 30.687854 1.815988 0.167331 -25.570160 0.594860 -4.937591 -13.730567 0.000000 0.000000 0.000000 26.749231 3.610855 -12.939658 -2.563099 -9.951659 28.820308 -0.955142 -3.232315 -19.897030 -0.008556 0.590303 -1.622149 4.143029 -0.333453 3.050007 3.559067 -0.241476 0.351845 1.344780 -0.129105 -1.352121 -14.024936 -6.347197 -13.679776 10.551941 -7.563658 14.423464 4.954189 -3.496474 7.636946 0.000000 0.000000 0.000000 0.645883 2.595231 -21.460183 17.899452 -28.028179 4.501876 1.159762 8.224058 -34.915540 0.000000 0.000000 0.000000 -7.125000 0.000000 0.000000 -37.326405 60.857947 15.665111 0.000000 0.000000 0.000000 -1.253724 -1.539470 19.253090 -15.142308 -24.343917 -3.284369 -9.862730 -9.960236 -18.552346 0.000000 0.000000 0.000000 7.125000 0.000000 0.000000 11.905529 11.473396 9.512284
